# xmcd
#
# Track frame offsets: 
#        300
#        23809
#        47384
#        77416
#        98184
#        116808
#        138991
#        168708
#        189603
#        222361
#        242950
#
# Disc length: 3420 seconds
#
# Revision: 0
# Processed by: cddbd v1.5.2PL0 Copyright (c) Steve Scherf et al.
# Submitted via: ExactAudioCopy v1.0b1
#
DISCID=970d580b
DTITLE=Albert Castiglia - These Are the Days
DYEAR=2008
DGENRE=General Blues
TTITLE0=Bad Year Blues
TTITLE1=He's Got All the Whiskey
TTITLE2=Loan Me a Dime
TTITLE3=Godfather of the Blues
TTITLE4=Celebration
TTITLE5=Nighttime is the Right Time
TTITLE6=Catfish
TTITLE7=Another Bloody Day
TTITLE8=Need Your Love So Bad
TTITLE9=Twister
TTITLE10=Blues For Evan
EXTD=
EXTT0=
EXTT1=
EXTT2=
EXTT3=
EXTT4=
EXTT5=
EXTT6=
EXTT7=
EXTT8=
EXTT9=
EXTT10=
PLAYORDER=
